# xmcd CD database file
#
# Track frame offsets:
#	150
#	18406
#	42207
#	55843
#	90040
#	101928
#	134296
#	156138
#	178513
#	204633
#	229420
#	254217
#
# Disc length: 3670 seconds
#
# Revision: 0
# Processed by: cddbd v1.4PL0 Copyright (c) Steve Scherf et al.
# Submitted via: CDex 1.40Release
#
DISCID=a10e540c
DTITLE=Ragtime - Heavy steppin'
DYEAR=2002
DGENRE=Blues
TTITLE0=Please, Don't Drive Me Away
TTITLE1=Hard Way
TTITLE2=Boogie Boy
TTITLE3=Don't Answer The Door
TTITLE4=I Go Crazy
TTITLE5=Good Morning Little Schoolgirl
TTITLE6=Hoochie Coochie Man
TTITLE7=Don't Burn Down That Bridge
TTITLE8=Heavy Stepin'
TTITLE9=Don't You Even Care
TTITLE10=Don't Waste My Time
TTITLE11=Angel
EXTD=YEAR: 2002 ID3G: 0
EXTT0=
EXTT1=
EXTT2=
EXTT3=
EXTT4=
EXTT5=
EXTT6=
EXTT7=
EXTT8=
EXTT9=
EXTT10=
EXTT11=
PLAYORDER=
